<svg xmlns="http://www.w3.org/2000/svg" xmlns:xlink="http://www.w3.org/1999/xlink" width="75.722" height="212.367" viewBox="0 0 75.722 212.367">
  <defs>
    <linearGradient id="linear-gradient" x1="0.5" y1="1" x2="0.5" gradientUnits="objectBoundingBox">
      <stop offset="0" stop-color="gray" stop-opacity="0.251"/>
      <stop offset="0.54" stop-color="gray" stop-opacity="0.122"/>
      <stop offset="1" stop-color="gray" stop-opacity="0.102"/>
    </linearGradient>
  </defs>
  <g id="Group_3004" data-name="Group 3004" transform="translate(621.307 -1815.916)">
    <g id="Group_2999" data-name="Group 2999" transform="translate(-745.047 1722.997)">
      <ellipse id="Ellipse_483" data-name="Ellipse 483" cx="35.111" cy="5.639" rx="35.111" ry="5.639" transform="translate(123.74 294.008)" fill="#5fe5bc" opacity="0.1"/>
      <path id="Path_9097" data-name="Path 9097" d="M456.959,334.036a.19.19,0,0,0-.054-.094c-.537-.53-7.383-10.212-7.383-10.212s-.36-1.081-.944-2.486a2.473,2.473,0,0,0,.414-.811,2.782,2.782,0,0,0,.068-.378c0-.04.029-.072.04-.112a2.735,2.735,0,0,0-.036-1.485,2.567,2.567,0,0,1-.148.36,6.023,6.023,0,0,0-.541-1.2c-.908-1.564-2.205-2.883-3.16-4.407a11.924,11.924,0,0,1-1.625-7.913c0,.141,0,.285,0,.425a12.322,12.322,0,0,1,.216-1.622,11.253,11.253,0,0,1,.6-1.78c.858-1.964,2.245-3.675,3.088-5.647a10.7,10.7,0,0,0,.641-2.065,11.567,11.567,0,0,0,.321-3.621,5.765,5.765,0,0,1-.09.861,11.729,11.729,0,0,0-3.311-7.809c-2.944-2.958-7.171-4.108-11.214-4.713a10.273,10.273,0,0,1-4.72-1.8,8.206,8.206,0,0,0-5.376-1.027,8.867,8.867,0,0,0-5.474,2.706c-1.921,2.112-2.753,5.1-4.994,6.882a22.17,22.17,0,0,1-4.663,2.321,6.242,6.242,0,0,0-3.585,3.38v.058l-.022.058c-.526,1.867.49,3.766,1.02,5.628a22.8,22.8,0,0,1,.616,5.956c.04,2.436.076,4.875.036,7.315-.018.958-.05,1.928-.122,2.883a15.105,15.105,0,0,0-2.476.995,49.026,49.026,0,0,0-3.827,3.787L394.35,341.03l.079.09-.079.306.3-.068a30.406,30.406,0,0,0,6.028,5.066l.252,4.425a7.866,7.866,0,0,0,4.385,6.273c.094,1.539.386,7.787-.966,10.262a11.531,11.531,0,0,0-1.276,5.866,19.949,19.949,0,0,1-.065,5.729A9.37,9.37,0,0,0,402.94,383h0v1.185c0,4,.047,16.8,0,18.251-.068,1.712,0,27.025,0,27.025s-.335,12.651-1.409,16.078-.8,14.774-.8,14.774-.674,13.516,1.708,16.183c0,.119-.022.241-.025.36v.169c-.029,1.027.169,2.119,1.052,2.454a15.077,15.077,0,0,1,4.634,3.362c.45.595,3.07,2.076,6.486,1.679a48.828,48.828,0,0,1,6.446-.3h0s1.348-.245.912-1.921h0a15,15,0,0,0-2.083-3.708c.137.036.27.065.4.09l.13.025h.1a1.365,1.365,0,0,0,.166,0h.072a1.224,1.224,0,0,0,.2,0h0c.9-.086,4.277,1.485,4.879,2.522s2.724,1.827,4.324,2.025a30.714,30.714,0,0,0,5.365-.339,19.752,19.752,0,0,0,3.005-.548c.476-.18.577-.757.44-1.405h0a3.658,3.658,0,0,0-1.247-2.1,10.117,10.117,0,0,1-1.924-2.4l-.151-.241c1.005-.958,2.821-4.093,3.373-4.742.67-.789-1.081-29.649-1.081-29.649V427.367l2.685-13.693,1.877-7.246,1.611-10.94s2.818-12.778,1.949-14.032h0c0-.025-.721-13.181-1.477-16.341a35.829,35.829,0,0,1-.05-7.664,1.513,1.513,0,0,0,.36-1.578,3.282,3.282,0,0,0-.209-.537v-.166a24.812,24.812,0,0,1,4.854-1.65c2.684-.526,2.014-1.91,2.014-1.91s.605-1.185,1.005-1.91.068-7.117,0-7.643c-.025-.213-.191-1.387-.382-2.721.861-.613,1.982-1.373,3.2-2.094C457.672,335.866,457.15,334.414,456.959,334.036Zm-35.025,91.356s-2.014,5.138-1.207,6.454-.133,6.2-.133,6.2l-.674,7.246s-1.877,13.441-1.207,16.6c.526,2.479.721,9.884.782,12.972h0a.9.9,0,0,0-.133.065l-.09.047c.31-1.214.18-3.672-1.358-8.616l-.13-20.42s-.238-23.588,1.625-26.225,2.522-7.117,2.522-7.117-.4,6.461-.667,8.172A13.471,13.471,0,0,0,421.934,425.392Zm-3.751,50.757c-.018.043-.04.086-.054.126l-.1-.13A1.05,1.05,0,0,0,418.183,476.149Z" transform="translate(-257.685 -183.503)" fill="url(#linear-gradient)"/>
      <path id="Path_9098" data-name="Path 9098" d="M481.49,839.054a35.778,35.778,0,0,1-8.266.89c-1.578-.191-3.668-.991-4.263-2.036s-3.928-2.623-4.821-2.522a3.242,3.242,0,0,1-1.081-.151,13.314,13.314,0,0,1-1.8-.692,3.343,3.343,0,0,1,.04-1.369,2.188,2.188,0,0,1,.079-.267,2.382,2.382,0,0,1,1.211-1.348l.13-.061a3.655,3.655,0,0,1,.778-.238c2.832-.544,14.518.548,14.518.548s.328.587.778,1.315a10.057,10.057,0,0,0,1.9,2.414,3.693,3.693,0,0,1,1.229,2.119C482.059,838.294,481.958,838.878,481.49,839.054Z" transform="translate(-300.449 -538.315)" fill="#fff"/>
      <path id="Path_9099" data-name="Path 9099" d="M481.5,840.846a35.746,35.746,0,0,1-8.263.89c-1.578-.191-3.668-.995-4.266-2.036s-3.924-2.623-4.818-2.522a8.346,8.346,0,0,1-2.883-.843,2.987,2.987,0,0,1,.591-2.425l1.8,1.279s4.821,1.5,5.715,2.883,2.522,2.162,4.875,2.3a45.607,45.607,0,0,0,7.69-.912C482.067,840.086,481.97,840.67,481.5,840.846Z" transform="translate(-300.457 -540.107)" opacity="0.1"/>
      <path id="Path_9100" data-name="Path 9100" d="M436.967,841.123a47.975,47.975,0,0,0-6.364.3c-3.384.4-5.967-1.081-6.418-1.69a15.038,15.038,0,0,0-4.573-3.387c-.876-.339-1.081-1.441-1.041-2.472V833.7a10.094,10.094,0,0,1,.288-1.935l14.021-.3,1.214,1.647.187.252.739,1.005s.335.44.775,1.081a15.38,15.38,0,0,1,2.057,3.733h0C438.3,840.878,436.967,841.123,436.967,841.123Z" transform="translate(-273.176 -538.546)" fill="#fff"/>
      <path id="Path_9101" data-name="Path 9101" d="M436.967,845.4a48,48,0,0,0-6.364.3c-3.38.4-5.967-1.081-6.414-1.69a14.616,14.616,0,0,0-4.576-3.38c-.876-.339-1.081-1.441-1.041-2.472,1,.234,3.106.832,3.931,1.874,1.081,1.391,3.016,3.729,5.765,3.877,2.22.119,7.625-.277,9.607-.436C438.3,845.158,436.967,845.4,436.967,845.4Z" transform="translate(-273.176 -542.826)" opacity="0.1"/>
      <path id="Path_9102" data-name="Path 9102" d="M435.275,831.763c-.162,1.2-.663,1.528-1.023,1.6a.7.7,0,0,1-.267,0,.882.882,0,0,1-.141-.022s-12.59,2.782-15.134.53a1.765,1.765,0,0,1-.18-.187,10.1,10.1,0,0,1,.288-1.935l14.021-.3,1.214,1.647a2.382,2.382,0,0,1,1.211-1.348Z" transform="translate(-273.152 -538.533)" opacity="0.1"/>
      <path id="Path_9103" data-name="Path 9103" d="M481.445,833.051c-.281.31-.515.486-.663.425-.663-.267-6.1-1.193-7.823-.4s-7.567.13-7.567.13,0-.692-.032-1.8a3.666,3.666,0,0,1,.778-.238c2.832-.544,14.518.548,14.518.548S481,832.323,481.445,833.051Z" transform="translate(-303.107 -538.257)" opacity="0.1"/>
      <path id="Path_9104" data-name="Path 9104" d="M456.644,577.492l-1.593,11L453.2,595.79l-2.652,13.786V624.17s1.722,29.036,1.059,29.829-3.182,5.308-3.845,5.045-6.1-1.193-7.823-.4-7.567.133-7.567.133-.133-11.268-.8-14.449,1.193-16.705,1.193-16.705l.663-7.29s.93-4.908.133-6.234,1.193-6.486,1.193-6.486a13.573,13.573,0,0,1-.659-4.645c.267-1.722.659-8.219.659-8.219s-.659,4.511-2.5,7.16-1.607,26.384-1.607,26.384l.13,20.539c3.319,10.875,0,9.812,0,9.812s-12.59,2.785-15.134.53-1.816-16.453-1.816-16.453-.263-11.4.8-14.846S416.02,611.7,416.02,611.7s-.068-25.458,0-27.177c.05-1.441,0-14.345,0-18.377v-1.193l1.521-3.776,18.017-2.256h8.619s12.972,3.048,14.313,4.364a.3.3,0,0,1,.072.079C459.43,564.635,456.644,577.492,456.644,577.492Z" transform="translate(-270.083 -364.206)" fill="#5fe5bc"/>
      <path id="Path_9105" data-name="Path 9105" d="M472.11,770.88s3.964,9.545,5.834,10.208S472.11,770.88,472.11,770.88Z" transform="translate(-307.425 -499.789)" opacity="0.1"/>
      <path id="Path_9106" data-name="Path 9106" d="M476.18,809.88s13.383.663,13.25,2.122S476.18,809.88,476.18,809.88Z" transform="translate(-310.029 -524.736)" opacity="0.1"/>
      <path id="Path_9107" data-name="Path 9107" d="M426.49,799.29c.53.5,10.208,1.441,9.412,2.357s-8.616,2.7-8.616,2.7Z" transform="translate(-278.244 -517.962)" opacity="0.1"/>
      <path id="Path_9108" data-name="Path 9108" d="M422.08,753.59c0,.4,1.989,12.727,2.522,13.257s4.9,1.06,4.9,1.06Z" transform="translate(-275.423 -488.729)" opacity="0.1"/>
      <path id="Path_9109" data-name="Path 9109" d="M437.49,280.866c-1.9,2.122-2.721,5.131-4.933,6.926a21.876,21.876,0,0,1-4.609,2.331c-1.564.735-3.113,1.856-3.578,3.521-.519,1.874.483,3.787,1.009,5.661a23.436,23.436,0,0,1,.609,5.992c.036,2.454.076,4.908.032,7.362-.065,3.823-.382,7.823-2.411,11.062,7.326,2.331,15.116,2.648,22.8,2.948a23.006,23.006,0,0,0,4.429-.112,38.016,38.016,0,0,0,3.773-.955,28.924,28.924,0,0,1,7.517-.962,12.62,12.62,0,0,0,3.3-.22,3.257,3.257,0,0,0,2.382-2.094,3.889,3.889,0,0,0-.609-2.839c-.894-1.571-2.162-2.883-3.12-4.432A12.179,12.179,0,0,1,463.3,304.1c.85-1.978,2.22-3.7,3.056-5.683a11.985,11.985,0,0,0-2.414-12.713c-2.908-2.976-7.081-4.129-11.073-4.742a10.057,10.057,0,0,1-4.663-1.8,7.981,7.981,0,0,0-5.311-1.031,8.67,8.67,0,0,0-5.4,2.731Z" transform="translate(-276.401 -184.549)" fill="#3f3d56"/>
      <g id="Group_2996" data-name="Group 2996" transform="translate(147.353 108.157)" opacity="0.1">
        <path id="Path_9110" data-name="Path 9110" d="M532.378,328.028a11.987,11.987,0,0,0-.919,5.5,11.783,11.783,0,0,1,.919-3.906c.847-1.978,2.216-3.7,3.052-5.682a11.5,11.5,0,0,0,.839-5.232,11.205,11.205,0,0,1-.839,3.639C534.594,324.331,533.224,326.05,532.378,328.028Z" transform="translate(-492.723 -318.71)"/>
        <path id="Path_9111" data-name="Path 9111" d="M427.391,332.211c.022,1.413.043,2.829.047,4.241q0-2.919-.047-5.83a23.385,23.385,0,0,0-.609-6A29.693,29.693,0,0,1,425.7,320.9c-.321,1.766.591,3.557,1.081,5.319A23.277,23.277,0,0,1,427.391,332.211Z" transform="translate(-425.049 -320.111)"/>
        <path id="Path_9112" data-name="Path 9112" d="M465.806,397.431a12.188,12.188,0,0,1-3.3.22,28.908,28.908,0,0,0-7.513.944,38.258,38.258,0,0,1-3.773.951,22.763,22.763,0,0,1-4.432.115c-7.423-.292-14.95-.605-22.06-2.728a12.218,12.218,0,0,1-.721,1.369c7.326,2.328,15.116,2.648,22.795,2.948a22.767,22.767,0,0,0,4.432-.115,37.272,37.272,0,0,0,3.758-.948,28.9,28.9,0,0,1,7.5-.955,12.441,12.441,0,0,0,3.3-.223,3.259,3.259,0,0,0,2.382-2.09,2.861,2.861,0,0,0-.036-1.5A3.364,3.364,0,0,1,465.806,397.431Z" transform="translate(-424.01 -367.779)"/>
      </g>
      <path id="Path_9113" data-name="Path 9113" d="M466.6,351.512c-.267.6-1.391,5.765-1.658,6.3s-1.722,9.008-1.856,9.484-9.6-1.989-9.6-1.989l-5.7-4.774-5.856-5.827s-.173-5.257,4.14-6.944a6.574,6.574,0,0,1,.9-.281c5.232-1.258,4.706-17.166,4.706-17.166l10.738,4.638s-1.989,9.282-1.921,11.073c.018.6.49.977,1.106,1.2a8.746,8.746,0,0,0,2.933.317S466.866,350.918,466.6,351.512Z" transform="translate(-288.125 -217.973)" fill="#fbbebe"/>
      <path id="Path_9114" data-name="Path 9114" d="M538.546,436.123l1.524.4s1.128,1.715-1.524,3.312a45.925,45.925,0,0,0-4.839,3.384L525.87,445.6l-1.51-4.738,7.293-5.535Z" transform="translate(-340.848 -285.15)" fill="#5fe5bc"/>
      <path id="Path_9115" data-name="Path 9115" d="M538.546,436.123l1.524.4s1.128,1.715-1.524,3.312a45.925,45.925,0,0,0-4.839,3.384L525.87,445.6l-1.51-4.738,7.293-5.535Z" transform="translate(-340.848 -285.15)" opacity="0.1"/>
      <path id="Path_9116" data-name="Path 9116" d="M399.588,448.7l-3.048,2.984s5.5,6.364,9.729,6.76,6.958-4.839,6.958-4.839l-3.661-5.765Z" transform="translate(-259.086 -293.152)" fill="#5fe5bc"/>
      <path id="Path_9117" data-name="Path 9117" d="M399.588,448.7l-3.048,2.984s5.5,6.364,9.729,6.76,6.958-4.839,6.958-4.839l-3.661-5.765Z" transform="translate(-259.086 -293.152)" opacity="0.1"/>
      <circle id="Ellipse_484" data-name="Ellipse 484" cx="10.605" cy="10.605" r="10.605" transform="translate(158.855 101.523)" opacity="0.1"/>
      <circle id="Ellipse_485" data-name="Ellipse 485" cx="10.605" cy="10.605" r="10.605" transform="translate(158.855 100.727)" fill="#fbbebe"/>
      <path id="Path_9118" data-name="Path 9118" d="M462.622,564.586a34.238,34.238,0,0,0-7.1,1.589c-3.964,1.319-35.025.021-35.457,0v-1.193l1.521-3.776,18.017-2.256h8.619S461.2,562,462.539,563.314C462.593,564.106,462.622,564.586,462.622,564.586Z" transform="translate(-274.137 -364.225)" opacity="0.1"/>
      <path id="Path_9119" data-name="Path 9119" d="M466.6,381.538c-.267.6-1.391,5.765-1.658,6.3s-1.722,9.008-1.856,9.484-9.6-1.989-9.6-1.989l-5.7-4.774-5.856-5.827s-.173-5.257,4.14-6.944L456.788,390.1l4.821-12.846a8.746,8.746,0,0,0,2.933.317S466.866,380.943,466.6,381.538Z" transform="translate(-288.125 -247.999)" opacity="0.1"/>
      <path id="Path_9120" data-name="Path 9120" d="M438.079,389.514,427.118,376.9a4.594,4.594,0,0,0-4.349-.321c-2.454,1.063-5.5,1.924-6.3,2.454a49.141,49.141,0,0,0-3.78,3.809l8.886,23.245L417.663,421.4s.6,7.823-.926,10.673a11.715,11.715,0,0,0-1.261,5.9,20.487,20.487,0,0,1-.065,5.765,9.6,9.6,0,0,0-.068,4.043s31.49,1.326,35.464,0a33.931,33.931,0,0,1,7.1-1.589s-.721-13.26-1.441-16.442.6-15.311.6-15.311l-.861-12.994,5.167-13.332s-2.8-8.547-5.719-9.408a56.658,56.658,0,0,1-6.428-1.856,22.539,22.539,0,0,0-4.443-1.128l-1.74.584Z" transform="translate(-269.416 -247.02)" fill="#5fe5bc"/>
      <rect id="Rectangle_1954" data-name="Rectangle 1954" width="25.238" height="38.621" rx="2.94" transform="translate(159.834 152.346) rotate(3.89)" opacity="0.1"/>
      <rect id="Rectangle_1955" data-name="Rectangle 1955" width="25.238" height="38.621" rx="2.94" transform="translate(160.629 151.555) rotate(3.89)" fill="#3f3d56"/>
      <rect id="Rectangle_1956" data-name="Rectangle 1956" width="21.988" height="33.23" transform="translate(162.053 154.558) rotate(3.89)" fill="#fff"/>
      <rect id="Rectangle_1957" data-name="Rectangle 1957" width="17.963" height="5.006" transform="translate(164.103 163.257) rotate(4.004)" opacity="0.1"/>
      <rect id="Rectangle_1958" data-name="Rectangle 1958" width="2.85" height="2.609" transform="translate(178.531 184.166) rotate(3.89)" opacity="0.1"/>
      <rect id="Rectangle_1959" data-name="Rectangle 1959" width="14.59" height="2.609" transform="translate(164.014 177.088) rotate(3.89)" opacity="0.1"/>
      <rect id="Rectangle_1960" data-name="Rectangle 1960" width="15.192" height="4.011" transform="translate(166.118 153.78) rotate(3.89)" fill="#3f3d56"/>
      <rect id="Rectangle_1961" data-name="Rectangle 1961" width="15.192" height="4.011" transform="translate(166.118 153.78) rotate(3.89)" opacity="0.1"/>
      <path id="Path_9121" data-name="Path 9121" d="M477.414,572.56s-.133,19.624-5.3,30.892c0,0,6.234-14.849,6.234-15.444s3.445-6.828,2.522-8.684S477.414,572.56,477.414,572.56Z" transform="translate(-307.425 -372.931)" opacity="0.1"/>
      <path id="Path_9122" data-name="Path 9122" d="M464.971,300.361a7.376,7.376,0,0,1,1.2-4.94,6.086,6.086,0,0,0,4.706,6.414.8.8,0,0,1-.227-.872,26.673,26.673,0,0,0,2.14,2.562,2.845,2.845,0,0,0,3.074.652c1.337-.721,1.351-2.62,1.005-4.1a19.243,19.243,0,0,0-4.429-8.457,5.859,5.859,0,0,0-4.648-2.364,11.435,11.435,0,0,0-6.007.94,15.962,15.962,0,0,0-2.883,2.014l-5.045,4.115a4.788,4.788,0,0,0-1.225,1.29,3.531,3.531,0,0,0-.382,1.351,7.282,7.282,0,0,0,3.394,6.872,5.373,5.373,0,0,1,3.218-5.045,1.4,1.4,0,0,1,.5,1.041l1.063-1.9a2.087,2.087,0,0,1,.721-.854,1.882,1.882,0,0,1,2.032.573,3.627,3.627,0,0,0,1.852,1.222l.029-2.821" transform="translate(-294.701 -191.681)" opacity="0.1"/>
      <path id="Path_9123" data-name="Path 9123" d="M465,299.26a7.38,7.38,0,0,1,1.2-4.944,6.09,6.09,0,0,0,4.71,6.414.789.789,0,0,1-.227-.868,27.121,27.121,0,0,0,2.14,2.562,2.83,2.83,0,0,0,3.074.649c1.337-.721,1.351-2.62,1.005-4.093a19.242,19.242,0,0,0-4.428-8.457,7.089,7.089,0,0,0-2.476-1.924,7.207,7.207,0,0,0-2.162-.44,11.433,11.433,0,0,0-6.007.937,16.164,16.164,0,0,0-2.883,2.018l-5.045,4.115a4.739,4.739,0,0,0-1.225,1.29,3.514,3.514,0,0,0-.382,1.351,7.279,7.279,0,0,0,3.394,6.868,5.38,5.38,0,0,1,3.218-5.045,1.409,1.409,0,0,1,.5,1.041l1.059-1.888a2.065,2.065,0,0,1,.721-.854,1.881,1.881,0,0,1,2.032.573,3.651,3.651,0,0,0,1.852,1.222l.029-2.825" transform="translate(-294.727 -190.977)" fill="#3f3d56"/>
      <path id="Path_9124" data-name="Path 9124" d="M444.722,468.306c-.926-.468-16.24,1.921-16.24,1.921a87.651,87.651,0,0,0-8.619-1.722,7.73,7.73,0,0,1-6.486-6.962l-.667-11.931,2.058-1.8,8.814,5.765a28.48,28.48,0,0,1,0,3.441,4.857,4.857,0,0,0-.3,1.081.36.36,0,0,0,.3.324c.6.151,8.749,1.47,8.749,1.47s18.893-1.294,23.6,5.07a4.785,4.785,0,0,1,.832,1.571C457.932,470.882,445.562,468.72,444.722,468.306Z" transform="translate(-269.429 -293.133)" fill="#fbbebe"/>
      <path id="Path_9125" data-name="Path 9125" d="M475.052,484.865c-.721.321-1.168.551-1.168.551s-6.76-.2-10.558-1.575a24.8,24.8,0,0,0-8.414-1.131s-15.826-2.724-13.372-6.281a.36.36,0,0,0,.3.324c.6.151,8.749,1.47,8.749,1.47s18.893-1.294,23.6,5.07A4.785,4.785,0,0,1,475.052,484.865Z" transform="translate(-287.706 -311.44)" opacity="0.1"/>
      <path id="Path_9126" data-name="Path 9126" d="M481.646,441.58s.93,6.562.995,7.1.4,6.958,0,7.69-.995,1.921-.995,1.921.663,1.391-1.989,1.924a27.222,27.222,0,0,0-5.765,2.119s-6.764-.2-10.54-1.589a24.322,24.322,0,0,0-8.417-1.128s-20.089-3.448-11.47-7.657a13.264,13.264,0,0,1,14.716,1.492l9.61-.595s3.582-2.191,4.576-1.989a3.68,3.68,0,0,0,2.054-.332l.068-6.962Z" transform="translate(-287.727 -289.148)" fill="#fbbebe"/>
      <path id="Path_9127" data-name="Path 9127" d="M404.234,396.7l-1.924-.1-5.83,22.7s6.3-1.593,9.008,0,7.69,1.921,7.69,1.921l-1.856-18.1Z" transform="translate(-259.047 -260.376)" opacity="0.1"/>
      <path id="Path_9128" data-name="Path 9128" d="M404.234,395.591l-1.924-.1-5.83,22.7s6.3-1.593,9.008,0,7.69,1.921,7.69,1.921l-1.856-18.1Z" transform="translate(-259.047 -259.666)" fill="#5fe5bc"/>
      <path id="Path_9129" data-name="Path 9129" d="M532.824,409.57l2.648.6s6.763,9.729,7.293,10.273-2.522,2.522-3.78,2.522-7.423.721-9.214,2.385-1.045-6.713-1.045-6.9,2.223-5.477,2.223-5.477Z" transform="translate(-343.542 -268.672)" opacity="0.1"/>
      <path id="Path_9130" data-name="Path 9130" d="M532.824,408.47l2.648.595s6.763,9.747,7.293,10.277-2.522,2.522-3.78,2.522-7.423.721-9.214,2.385-1.045-6.713-1.045-6.9,2.238-5.5,2.238-5.5Z" transform="translate(-343.542 -267.969)" fill="#5fe5bc"/>
      <g id="Group_2997" data-name="Group 2997" transform="translate(157.531 102.543)" opacity="0.1">
        <path id="Path_9131" data-name="Path 9131" d="M466.177,303.959a5.308,5.308,0,0,1,.018-.829,7.376,7.376,0,0,0-1.11,2.721v1.005c0,.584,0,1.171-.018,1.755h-.05v.27A1.437,1.437,0,0,0,465,308.6a3.833,3.833,0,0,1-1.773-1.2c-.537-.483-1.376-.944-2.032-.573a2.064,2.064,0,0,0-.721.854l-1.07,1.888a1.394,1.394,0,0,0-.5-1.038,5.373,5.373,0,0,0-3.218,5.045,7.322,7.322,0,0,1-3.42-5.74,7.286,7.286,0,0,0,3.42,6.533,5.38,5.38,0,0,1,3.218-5.045,1.409,1.409,0,0,1,.5,1.041l1.059-1.888a2.065,2.065,0,0,1,.721-.854,1.882,1.882,0,0,1,2.032.573,3.651,3.651,0,0,0,1.852,1.222q0-1.384.029-2.76A7.34,7.34,0,0,1,466.177,303.959Z" transform="translate(-452.256 -303.13)"/>
        <path id="Path_9132" data-name="Path 9132" d="M487.5,312.455c.018-.245.047-.49.083-.721l.04-.995A7.291,7.291,0,0,0,487.5,312.455Z" transform="translate(-474.793 -307.998)"/>
        <path id="Path_9133" data-name="Path 9133" d="M508.51,321.731a2.837,2.837,0,0,1-3.074-.649,26.687,26.687,0,0,1-2.14-2.562.8.8,0,0,0,.227.872.85.85,0,0,1-.209-.054,23.806,23.806,0,0,0,2.122,2.522,2.861,2.861,0,0,0,3.074.649,2.945,2.945,0,0,0,1.178-2.958A2.5,2.5,0,0,1,508.51,321.731Z" transform="translate(-484.874 -312.974)"/>
        <path id="Path_9134" data-name="Path 9134" d="M495.376,311.265a6.126,6.126,0,0,1-4.49-5.355,6.086,6.086,0,0,0,4.72,6.209A.793.793,0,0,1,495.376,311.265Z" transform="translate(-476.957 -304.908)"/>
      </g>
    </g>
  </g>
</svg>
