<svg xmlns="http://www.w3.org/2000/svg" width="79.454" height="221.316" viewBox="0 0 79.454 221.316">
  <g id="Group_3005" data-name="Group 3005" transform="translate(1019.185 -1850.607)">
    <g id="Group_3001" data-name="Group 3001" transform="translate(-1292.047 1760.997)">
      <rect id="Rectangle_1938" data-name="Rectangle 1938" width="10.248" height="10.248" transform="translate(302.42 126.697)" fill="#5fe5bc" opacity="0.1"/>
      <rect id="Rectangle_1946" data-name="Rectangle 1946" width="10.248" height="10.248" transform="translate(302.42 151.974)" fill="#5fe5bc" opacity="0.1"/>
      <rect id="Rectangle_1948" data-name="Rectangle 1948" width="10.248" height="10.248" transform="translate(302.42 177.248)" fill="#5fe5bc" opacity="0.1"/>
      <rect id="Rectangle_1950" data-name="Rectangle 1950" width="10.248" height="10.248" transform="translate(302.42 202.526)" fill="#5fe5bc" opacity="0.1"/>
      <rect id="Rectangle_1952" data-name="Rectangle 1952" width="10.248" height="10.248" transform="translate(302.42 227.804)" fill="#5fe5bc" opacity="0.1"/>
      <path id="Path_9088" data-name="Path 9088" d="M838.4,708.939V702.33h10.244V708Z" transform="translate(-535.98 -449.252)" fill="#5fe5bc" opacity="0.1"/>
      <ellipse id="Ellipse_482" data-name="Ellipse 482" cx="35.111" cy="5.639" rx="35.111" ry="5.639" transform="translate(282.094 299.648)" fill="#5fe5bc" opacity="0.1"/>
      <path id="Path_9136" data-name="Path 9136" d="M946.688,542.814l-.778,3.315s-6.234-3.189-7.354-7.225,1.877-5.574,1.877-5.574l5.812,2.458Z" transform="translate(-605.632 -347.837)" fill="#fff"/>
      <path id="Path_9137" data-name="Path 9137" d="M946.688,542.814l-.778,3.315s-6.234-3.189-7.354-7.225,1.877-5.574,1.877-5.574l5.812,2.458Z" transform="translate(-605.632 -347.837)" opacity="0.1"/>
      <path id="Path_9138" data-name="Path 9138" d="M839.437,849.489a44.8,44.8,0,0,1-9.729,2.385,3.7,3.7,0,0,1-3.78-2.393,7.312,7.312,0,0,1-.6-2.162l.522-5.711.274-3.038,8.421-2.191,1.193,3.65.112.274c.476,1.222,2.4,6.173,2.342,7.207a1.978,1.978,0,0,0,.587,1.441A3.348,3.348,0,0,0,839.437,849.489Z" transform="translate(-533.367 -541.687)" fill="#fff"/>
      <path id="Path_9139" data-name="Path 9139" d="M927.8,845.881a1.441,1.441,0,0,1-.051.519s-12.331,2.054-14.853,0a6.677,6.677,0,0,0-5.174-1.524s-4.771.13-5.567-1.441a6.244,6.244,0,0,1-.04-3.2,30.663,30.663,0,0,1,.836-3.5l.191-.151,1.135-.912,13.289-.393h.1c-.065,2.717,4.508,5.834,4.508,5.834C927.045,842.915,927.762,844.951,927.8,845.881Z" transform="translate(-582.368 -540.983)" fill="#fff"/>
      <path id="Path_9140" data-name="Path 9140" d="M927.8,854.676a1.484,1.484,0,0,1-.054.519s-12.331,2.054-14.85,0a6.677,6.677,0,0,0-5.178-1.524s-4.774.13-5.571-1.441a6.3,6.3,0,0,1-.04-3.2c1.838.184,4.738.641,5.877,1.737,1.722,1.658,4.641,3.315,6.428,3.448C915.828,854.3,924.227,854.568,927.8,854.676Z" transform="translate(-582.364 -549.779)" opacity="0.1"/>
      <path id="Path_9141" data-name="Path 9141" d="M840.5,871.781a44.8,44.8,0,0,1-9.729,2.385,3.7,3.7,0,0,1-3.78-2.393c1.47.494,3.506,1.009,4.576.537,1.268-.566,5.766-.926,8.288-1.081a3.278,3.278,0,0,0,.645.551Z" transform="translate(-534.429 -563.979)" opacity="0.1"/>
      <path id="Path_9142" data-name="Path 9142" d="M871.2,360.484c-4.756-1.849-10.875-7.956-9.347-10.81a6.461,6.461,0,0,0,.595-2.292,20.92,20.92,0,0,0,.043-3.243,44.526,44.526,0,0,0-.638-5.279s14.85.335,13.985,2.522a8.117,8.117,0,0,0-.223,3c.072,1.243.249,2.659.436,3.852.256,1.632.519,2.883.519,2.883s-.912,1.272-1.441,1.34S878.028,363.132,871.2,360.484Z" transform="translate(-556.578 -223.442)" fill="#cf6f80"/>
      <path id="Path_9143" data-name="Path 9143" d="M836.739,840.254l-.112.122c-4.439-5.369-9.808,1.326-9.808,1.326l-.079-.144.274-3.038,8.421-2.191,1.193,3.65Z" transform="translate(-534.269 -541.655)" opacity="0.1"/>
      <path id="Path_9144" data-name="Path 9144" d="M919.5,835.633s-3.243-.065-4.973,1.463-10.089.328-9.729,0a1.247,1.247,0,0,0,.187-.551l1.135-.912,13.289-.393C919.462,835.492,919.5,835.633,919.5,835.633Z" transform="translate(-584.194 -540.958)" opacity="0.1"/>
      <path id="Path_9145" data-name="Path 9145" d="M835.746,706.687a10.1,10.1,0,0,0-.548,1.848,21.16,21.16,0,0,0-.249,5.246c.133,2.522,0,19.426,0,19.426a51.426,51.426,0,0,1-4.443,6.1c-1.593,1.589,3.243,4.443,3.243,4.443.721,4.111-3.647,8.753-3.647,8.753-4.439-5.369-9.808,1.323-9.808,1.323s-2.919-5.045-3.647-6.846,2.85-3.045,4.108-3.78-.065-5.045-.065-5.045-1.059-3.78-2.321-7.228,1.391-20.611,1.391-20.611a26.658,26.658,0,0,1,.465-4.115,6.967,6.967,0,0,0,.1-2.335c-.022-.263-.047-.479-.065-.631s-.033-.216-.033-.216l.051-.086,1.8-3.358S836.611,704.571,835.746,706.687Z" transform="translate(-527.751 -454.175)" fill="#5fe5bc"/>
      <path id="Path_9146" data-name="Path 9146" d="M912.588,754.741s-3.243-.068-4.973,1.441-10.089.331-9.729,0,.328-2.782.328-2.782c-4.9-6.7-.721-9.416-.721-9.416s-2.187-10.54-2.583-14.449c-.277-2.728-.62-10.089-.8-14.259-.079-1.8-.126-3.045-.126-3.045l3.971-.789.515-.1,9.664-1.942s.267,1.8.447,3.275a14.393,14.393,0,0,1,.148,1.9c-.061.721,0,2.98,0,2.98l.331,6.76a7.794,7.794,0,0,0-.331,2.187c.068.865,1.326,13.192,1.326,13.192s2.187,7.358,1.441,7.888S912.588,754.741,912.588,754.741Z" transform="translate(-577.28 -460.463)" fill="#5fe5bc"/>
      <path id="Path_9147" data-name="Path 9147" d="M876.265,341.412a8.115,8.115,0,0,0-.223,3,12.341,12.341,0,0,1-13.123-.245,44.55,44.55,0,0,0-.638-5.279S877.13,339.225,876.265,341.412Z" transform="translate(-557.002 -223.461)" opacity="0.1"/>
      <path id="Path_9148" data-name="Path 9148" d="M873.234,301.921a12.328,12.328,0,1,1-24.654.3v-.3a12.331,12.331,0,1,1,24.661,0Z" transform="translate(-548.239 -191.926)" fill="#cf6f80"/>
      <path id="Path_9149" data-name="Path 9149" d="M871.2,375.612c-4.756-1.849-10.875-7.956-9.347-10.81a6.46,6.46,0,0,0,.595-2.292l6.511,5.355,4.029,3.3,3.063-7.794c.256,1.632.519,2.883.519,2.883s-.912,1.272-1.441,1.34S878.028,378.26,871.2,375.612Z" transform="translate(-556.578 -238.57)" opacity="0.1"/>
      <path id="Path_9150" data-name="Path 9150" d="M864.155,379.724l-5.438,91.345-7.091.465L833.26,418.568l3.012-62.882.638-13.286,8.165,6.706,4.029,3.3,3.153-8.025,5.863,5.11Z" transform="translate(-532.692 -219.019)" fill="#5fe5bc"/>
      <path id="Path_9151" data-name="Path 9151" d="M842.257,706.738a10.107,10.107,0,0,0-.548,1.849,52.252,52.252,0,0,1-14.882-4.645l-.1-.051.032-.58v-.3l1.8-3.358S843.122,704.623,842.257,706.738Z" transform="translate(-534.262 -454.226)" opacity="0.1"/>
      <path id="Path_9152" data-name="Path 9152" d="M898.031,718.464a36.51,36.51,0,0,1-3.985.458c-.079-1.8-.126-3.045-.126-3.045l3.993-.807Z" transform="translate(-577.241 -464.09)" opacity="0.1"/>
      <path id="Path_9153" data-name="Path 9153" d="M916.581,712.675a27.98,27.98,0,0,1-10.061.948l-.05-2.281,9.664-1.942S916.39,711.187,916.581,712.675Z" transform="translate(-585.269 -460.463)" opacity="0.1"/>
      <path id="Path_9154" data-name="Path 9154" d="M823.472,491.11c-14.774,2.522-28.3-4.71-28.3-4.71l.13-2.45s.335-27.778-.595-29.908-1.654-12.914-1.128-14.561-1.921-26.51-1.921-26.51l-.4-10.089-14.518-5.9,6.486-13.523a48.857,48.857,0,0,0,2.256-5.837c1.128-3.513,6.364-6.962,6.364-6.962s5.369-3.445,7.491-3.315,4.9-3.048,4.9-3.048c2.054-5.236,3.913-2.883,3.913-2.883a4.635,4.635,0,0,1-.1.775c-.721,5.747,11.653,23.908,11.83,24.233h0l1.193,28.7,1.193,36.326Z" transform="translate(-502.286 -237.532)" opacity="0.1"/>
      <path id="Path_9155" data-name="Path 9155" d="M822.353,491.11c-14.774,2.522-28.308-4.71-28.308-4.71l.133-2.45s.331-27.778-.6-29.908-1.654-12.925-1.124-14.586-1.932-26.5-1.932-26.5l-.4-10.089-14.514-5.9,6.486-13.523a49.623,49.623,0,0,0,2.256-5.834c1.128-3.5,6.382-6.954,6.382-6.954s5.369-3.445,7.488-3.315,4.915-3.045,4.915-3.045c2.057-5.236,4.324-2.883,4.324-2.883,0,.252-.216.36-.1.775,1.586,5.574,11.257,23.908,11.434,24.233h0l1.193,28.7,1.168,36.344Z" transform="translate(-501.563 -237.532)" fill="#fff"/>
      <path id="Path_9156" data-name="Path 9156" d="M870.12,388.693c-1.589-.663-10.006-10.273-10.006-10.273v-2.187c-.306-.721-2.13-.281-3.6.223l.634-13.286.721.6C859.44,369.339,869.947,388.372,870.12,388.693Z" transform="translate(-553.311 -238.992)" opacity="0.1"/>
      <path id="Path_9157" data-name="Path 9157" d="M871.224,386.512c-1.593-.667-10.01-10.273-10.01-10.273v-2.191c-.306-.721-2.126-.281-3.6.223L858.233,361l.721.595C860.543,367.158,871.047,386.188,871.224,386.512Z" transform="translate(-554.015 -237.604)" fill="#fff"/>
      <path id="Path_9158" data-name="Path 9158" d="M826.441,562.919c.2,0,10.273-1.059,10.273-1.059s6.1,12,5.7,14.914-1.124,5.5-3.578,5.045-13.206.36-13.206.36Z" transform="translate(-533.559 -366.087)" opacity="0.1"/>
      <path id="Path_9159" data-name="Path 9159" d="M825.331,560.709c.2,0,10.277-1.059,10.277-1.059s6.1,12.017,5.7,14.9-1.128,5.5-3.578,5.045-13.21.36-13.21.36Z" transform="translate(-532.849 -364.673)" fill="#fff"/>
      <path id="Path_9160" data-name="Path 9160" d="M838.06,547s9.246,4.973,9.444,6.486-4.706-.663-5.765-.93a13.747,13.747,0,0,0-2.122-.331l-7.066.191Z" transform="translate(-537.985 -356.581)" fill="#cf6f80"/>
      <circle id="Ellipse_486" data-name="Ellipse 486" cx="0.973" cy="0.973" r="0.973" transform="translate(313.252 148.374)" opacity="0.1"/>
      <circle id="Ellipse_487" data-name="Ellipse 487" cx="0.973" cy="0.973" r="0.973" transform="translate(313.252 147.978)" fill="#3f3d56"/>
      <circle id="Ellipse_488" data-name="Ellipse 488" cx="0.973" cy="0.973" r="0.973" transform="translate(315.043 190.491)" opacity="0.1"/>
      <circle id="Ellipse_489" data-name="Ellipse 489" cx="0.973" cy="0.973" r="0.973" transform="translate(315.043 190.091)" fill="#3f3d56"/>
      <circle id="Ellipse_490" data-name="Ellipse 490" cx="0.973" cy="0.973" r="0.973" transform="translate(314.225 169.433)" opacity="0.1"/>
      <circle id="Ellipse_491" data-name="Ellipse 491" cx="0.973" cy="0.973" r="0.973" transform="translate(314.225 169.036)" fill="#3f3d56"/>
      <path id="Path_9161" data-name="Path 9161" d="M919.811,435.471s.663.995,0,1.441.065,1.593.065,1.593-1.654.966-.926,1.841.267,4.807.267,4.807l-1.989,3.311s.119,2.122.126,4.991c0,4.475-.263,10.767-1.719,13.635l.195,23.534s-6.965,2.548-12.8,1.769l-.865-37.763s1.261-21.415,1.726-25.523a42.732,42.732,0,0,0,.332-6.432,71.778,71.778,0,0,0-.865-9.408s-.721-12.929-.793-16.507c-.032-1.712.058-6.706.159-11.455.112-5.193.238-10.089.238-10.089L901.65,364.8s1.315-.13,1.712.4a3.8,3.8,0,0,0,.577.443h0c2.274,1.535,10.295,6.255,10.295,6.255s4.439,1.766,5.5,4.3a37.432,37.432,0,0,0,2.317,5.045c.515.721.8,4.108.8,4.108s1.528,6.234,2.721,7.29,2.05,7.758,2.05,7.758l-10.54,8.288s-.926,13.786-1.124,14.32S919.811,435.471,919.811,435.471Z" transform="translate(-582.186 -240.029)" fill="#fff"/>
      <path id="Path_9162" data-name="Path 9162" d="M920.192,435.246s.659.995,0,1.441.061,1.593.061,1.593-1.654.966-.926,1.841.267,4.807.267,4.807l-1.982,3.312s.119,2.122.13,4.991c0,4.475-.263,10.767-1.719,13.635l.2,23.534s-6.965,2.548-12.8,1.769l-.861-37.763s1.258-21.415,1.726-25.523a42.364,42.364,0,0,0,.328-6.432,72.206,72.206,0,0,0-.861-9.408s-.721-12.929-.8-16.507c-.032-1.712.058-6.706.159-11.455.112-5.192.238-10.089.238-10.089L901.62,364.44s1.737,0,2.137.537a3.42,3.42,0,0,0,.577.443h0c2.27,1.535,10.291,6.255,10.291,6.255s4.429,1.766,5.51,4.3a39.935,39.935,0,0,0,2.317,5.045c.515.721.8,4.108.8,4.108s1.528,6.234,2.72,7.29,2.054,7.758,2.054,7.758l-10.54,8.288s-.926,13.786-1.128,14.32S920.192,435.246,920.192,435.246Z" transform="translate(-582.167 -239.805)" fill="#fff"/>
      <path id="Path_9163" data-name="Path 9163" d="M908.266,379.457l.955,2.775-5.012,5.045c.112-5.193.238-10.089.238-10.089L902.71,366.64s1.737,0,2.137.537a3.421,3.421,0,0,0,.577.443h0l4.259,12.284Z" transform="translate(-582.864 -241.212)" opacity="0.1"/>
      <path id="Path_9164" data-name="Path 9164" d="M907.136,377.234l.955,2.771-5.009,5.045c.108-5.192.238-10.089.238-10.089l-1.74-10.551s1.74,0,2.137.537a3.609,3.609,0,0,0,.577.443h0l4.284,12.295Z" transform="translate(-582.141 -239.785)" fill="#fff"/>
      <path id="Path_9165" data-name="Path 9165" d="M873.234,301.921a12.293,12.293,0,0,1-.605,3.823.512.512,0,0,1-.389-.094c-.1-3.243-1.69-6.292-3.654-8.882a9.4,9.4,0,0,0-1.982-2.054,3.881,3.881,0,0,0-2.688-.76c-1.081.148-2.036.883-3.128.976-1.441.119-2.731-.879-4.162-.926a4.079,4.079,0,0,0-3.059,1.42,8.346,8.346,0,0,0-1.64,3.038,17.8,17.8,0,0,0-.915,5.247c-.018,1.009-.115,2.274-1.052,2.641a5.369,5.369,0,0,0-1.359-4.108l-.021-.025v-.3a12.331,12.331,0,1,1,24.661,0Z" transform="translate(-548.239 -191.926)" opacity="0.1"/>
      <path id="Path_9166" data-name="Path 9166" d="M859.368,268.047a8.49,8.49,0,0,0-5.989-.468c-1,.3-1.939.775-2.951,1.016-2.162.522-4.684-.043-6.54,1.222a7.807,7.807,0,0,0-2.227,2.969l-1.441,2.742a17.818,17.818,0,0,0-1.906,4.684,5.991,5.991,0,0,0,.919,4.839c.76.966,1.892,1.575,2.72,2.486a5.4,5.4,0,0,1,1.355,4.119c.937-.36,1.031-1.632,1.052-2.641a17.815,17.815,0,0,1,.915-5.247,8.348,8.348,0,0,1,1.639-3.038,4.083,4.083,0,0,1,3.059-1.423c1.441.05,2.735,1.049,4.162.926,1.081-.09,2.04-.825,3.128-.973a3.863,3.863,0,0,1,2.688.76,9.228,9.228,0,0,1,1.978,2.054c1.968,2.594,3.564,5.628,3.657,8.882.407.3.995-.094,1.2-.555a13.218,13.218,0,0,1,.465-1.441,5.328,5.328,0,0,1,1.3-1.164,5.1,5.1,0,0,0,1.362-4.083,20.344,20.344,0,0,1-.05-4.439c.169-.89.551-1.73.76-2.612a3.416,3.416,0,0,0-.26-2.634c-.721-1.113-2.238-1.337-3.56-1.441-1.5-.13-2.847.036-3.805-1.229a14.1,14.1,0,0,0-1.514-1.852C861.288,269.315,859.368,268.126,859.368,268.047Z" transform="translate(-541.579 -177.629)" fill="#512e4e"/>
      <path id="Path_9167" data-name="Path 9167" d="M779.485,468.008l-3.762-6.958-1.193,10.738a49.8,49.8,0,0,1,.53,5.5c-.133.731,2.717,7.29,2.717,7.29s9.416,16.774,13.26,17.635l12.972-9.282-3.445-4.374s-1.193-.465-1.492,0c0,0-6.4-11-7.059-11.8a4.01,4.01,0,0,1-.533-2.389s-.995-1.059-.663-2.054-1.9-4.439-1.9-4.439l2.054-1.921Z" transform="translate(-500.872 -301.602)" opacity="0.1"/>
      <path id="Path_9168" data-name="Path 9168" d="M774.507,458.84l-.995.8-1.193,10.738a49.8,49.8,0,0,1,.53,5.5c-.133.731,2.721,7.29,2.721,7.29s9.412,16.774,13.257,17.635l12.994-9.282-3.448-4.374s-1.193-.465-1.492,0c0,0-6.4-11-7.059-11.8a3.968,3.968,0,0,1-.53-2.389s-.995-1.059-.663-2.054-1.924-4.439-1.924-4.439l2.054-1.921Z" transform="translate(-499.458 -300.189)" fill="#fff"/>
      <path id="Path_9169" data-name="Path 9169" d="M936.308,564.234c.721.876.267,4.811.267,4.811l-1.989,3.29s.119,2.126.126,4.994l-3.344,1.045a1.989,1.989,0,0,1-2.58-1.96l.58-18.593,7.8,2.98c-.663.461.065,1.593.065,1.593S935.581,563.358,936.308,564.234Z" transform="translate(-599.545 -363.502)" opacity="0.1"/>
      <path id="Path_9170" data-name="Path 9170" d="M937.421,563.128c.721.872.267,4.807.267,4.807l-1.982,3.293s.119,2.122.13,4.991l-3.405,1.063a1.942,1.942,0,0,1-2.522-1.913l.58-18.658,7.8,2.987c-.667.461.061,1.593.061,1.593S936.693,562.252,937.421,563.128Z" transform="translate(-600.261 -362.792)" fill="#fff"/>
      <path id="Path_9171" data-name="Path 9171" d="M946.859,544.749s-.53,3.384-1.856,3.582-1.921,5.474-3.243,5.29-.447-4.908-.4-5.823-1.441-4.706-.331-5.567,4.641,0,4.641,0Z" transform="translate(-607.111 -353.286)" fill="#cf6f80"/>
      <path id="Path_9172" data-name="Path 9172" d="M947.2,468.645l2.5-5.045a32.643,32.643,0,0,1,1,5.9c0,2.054,1.391,2.256,1.391,2.256s1.524,1.8.721,3.117-1.124,4.573-1.124,4.573.263,6.23-.93,7.091a4.892,4.892,0,0,0-1.459,2.919s-2.187,3.91-2.119,4.839-3.048,7.225-3.048,7.225,1.524-7.823-7.358-11.2c0,0-.068-2.652.594-3.38s1.7-1.081,1.049-4.742a42.978,42.978,0,0,1-.187-8.958,56.325,56.325,0,0,1,1.989-6.385Z" transform="translate(-604.647 -303.233)" opacity="0.1"/>
      <path id="Path_9173" data-name="Path 9173" d="M949.748,461.6l2.184.721a32.643,32.643,0,0,1,1,5.9c0,2.054,1.391,2.256,1.391,2.256s1.524,1.8.721,3.117-1.128,4.573-1.128,4.573.267,6.23-.926,7.091a4.825,4.825,0,0,0-1.441,2.919s-2.187,3.91-2.119,4.839-3.052,7.225-3.052,7.225,1.524-7.823-7.358-11.2c0,0-.065-2.652.6-3.38s1.7-1.081,1.049-4.742a42.972,42.972,0,0,1-.187-8.958,56.327,56.327,0,0,1,1.989-6.385Z" transform="translate(-606.087 -301.954)" fill="#fff"/>
      <path id="Path_9174" data-name="Path 9174" d="M834.92,822.381s3.481-2.187,5.765-.6S834.92,822.381,834.92,822.381Z" transform="translate(-539.501 -531.979)" opacity="0.1"/>
      <path id="Path_9175" data-name="Path 9175" d="M910,805.665a7.046,7.046,0,0,1,5.668,2.389C918.255,810.84,910,805.665,910,805.665Z" transform="translate(-587.527 -522.028)" opacity="0.1"/>
      <g id="Group_2998" data-name="Group 2998" transform="translate(296.584 97.545)" opacity="0.1">
        <path id="Path_9176" data-name="Path 9176" d="M877.688,306.907c-.443.386-1.013.656-1.308,1.164a13.448,13.448,0,0,0-.461,1.441c-.2.465-.789.85-1.2.555-.094-3.243-1.69-6.288-3.654-8.882a9.213,9.213,0,0,0-1.978-2.05,3.874,3.874,0,0,0-2.692-.764c-1.081.148-2.032.883-3.124.977-1.441.119-2.735-.879-4.165-.926a4.065,4.065,0,0,0-3.056,1.42,8.345,8.345,0,0,0-1.64,3.038,17.819,17.819,0,0,0-.915,5.247c-.022,1.005-.115,2.259-1.045,2.634a4.961,4.961,0,0,1,0,.8c.941-.36,1.034-1.632,1.056-2.641a17.815,17.815,0,0,1,.915-5.247,8.344,8.344,0,0,1,1.64-3.038,4.079,4.079,0,0,1,3.056-1.423c1.441.05,2.739,1.049,4.166.926,1.081-.09,2.039-.825,3.124-.973a3.873,3.873,0,0,1,2.692.76,9.228,9.228,0,0,1,1.978,2.054c1.964,2.594,3.56,5.628,3.654,8.882.411.3,1-.094,1.2-.555a13.96,13.96,0,0,1,.461-1.441A5.343,5.343,0,0,1,877.7,307.7a5.1,5.1,0,0,0,1.362-4.083v-.137A4.737,4.737,0,0,1,877.688,306.907Z" transform="translate(-847.299 -295.077)"/>
        <path id="Path_9177" data-name="Path 9177" d="M841.94,311.738c-.825-.912-1.957-1.524-2.717-2.49a5.228,5.228,0,0,1-1.048-2.948,5.552,5.552,0,0,0,1.048,3.744c.76.966,1.892,1.575,2.717,2.486a5.4,5.4,0,0,1,1.362,3.214A5.4,5.4,0,0,0,841.94,311.738Z" transform="translate(-838.155 -300.16)"/>
        <path id="Path_9178" data-name="Path 9178" d="M926.668,289.955c-.213.883-.591,1.722-.764,2.612a8.346,8.346,0,0,0-.112,1.823,7.007,7.007,0,0,1,.112-1.027c.173-.89.551-1.73.764-2.612a4.53,4.53,0,0,0,.119-1.492A5.006,5.006,0,0,1,926.668,289.955Z" transform="translate(-894.207 -289.26)"/>
      </g>
    </g>
  </g>
</svg>
