<svg id="Group_3234" data-name="Group 3234" xmlns="http://www.w3.org/2000/svg" width="96.781" height="110.886" viewBox="0 0 96.781 110.886">
  <g id="Group_3230" data-name="Group 3230" transform="translate(0 0)">
    <g id="Group_3223" data-name="Group 3223" transform="translate(0 0)">
      <g id="Group_3159" data-name="Group 3159" transform="translate(1.062 72.708)">
        <g id="Group_3158" data-name="Group 3158">
          <g id="Group_3157" data-name="Group 3157">
            <g id="Group_3156" data-name="Group 3156">
              <path id="Path_9223" data-name="Path 9223" d="M77.006,210.053V189.73A11.486,11.486,0,0,0,65.52,178.244H19.577A11.486,11.486,0,0,0,8.091,189.73v20.323Z" transform="translate(-8.091 -178.244)" fill="#6bdddd"/>
            </g>
          </g>
        </g>
      </g>
      <g id="Group_3163" data-name="Group 3163" transform="translate(22.185 64.302)">
        <g id="Group_3162" data-name="Group 3162">
          <g id="Group_3161" data-name="Group 3161">
            <g id="Group_3160" data-name="Group 3160">
              <path id="Path_9224" data-name="Path 9224" d="M72.686,170.813v-8.406H49.739v8.406h-1.85v6.54a2.3,2.3,0,0,0,2.3,2.3H72.239a2.3,2.3,0,0,0,2.3-2.3v-6.54Z" transform="translate(-47.889 -162.407)" fill="#f9cfcf"/>
            </g>
          </g>
        </g>
      </g>
      <g id="Group_3167" data-name="Group 3167" transform="translate(0 63.241)">
        <g id="Group_3166" data-name="Group 3166">
          <g id="Group_3165" data-name="Group 3165">
            <g id="Group_3164" data-name="Group 3164">
              <path id="Path_9225" data-name="Path 9225" d="M76.068,202.745H7.153a1.062,1.062,0,0,1-1.062-1.062V181.36a12.562,12.562,0,0,1,12.547-12.547H29.063v-7.344a1.062,1.062,0,0,1,1.062-1.061H53.072a1.062,1.062,0,0,1,1.062,1.061v7.344H64.581A12.562,12.562,0,0,1,77.129,181.36v20.323A1.061,1.061,0,0,1,76.068,202.745ZM8.214,200.621H75.006V181.36a10.436,10.436,0,0,0-10.425-10.424H53.073a1.062,1.062,0,0,1-1.062-1.061V162.53H31.187v7.344a1.062,1.062,0,0,1-1.062,1.061H18.638A10.436,10.436,0,0,0,8.214,181.36Z" transform="translate(-6.091 -160.407)" fill="#19769f"/>
            </g>
          </g>
        </g>
      </g>
      <g id="Group_3171" data-name="Group 3171" transform="translate(6.497 18.668)">
        <g id="Group_3170" data-name="Group 3170">
          <g id="Group_3169" data-name="Group 3169">
            <g id="Group_3168" data-name="Group 3168">
              <path id="Path_9226" data-name="Path 9226" d="M47.354,120.368A29.022,29.022,0,0,1,18.332,91.346V83.513a7.083,7.083,0,0,1,7.084-7.084h50.96V91.346A29.021,29.021,0,0,1,47.354,120.368Z" transform="translate(-18.332 -76.429)" fill="#0087c3"/>
            </g>
          </g>
        </g>
      </g>
      <g id="Group_3175" data-name="Group 3175" transform="translate(5.436 17.607)">
        <g id="Group_3174" data-name="Group 3174">
          <g id="Group_3173" data-name="Group 3173">
            <g id="Group_3172" data-name="Group 3172">
              <path id="Path_9227" data-name="Path 9227" d="M46.416,120.491A30.118,30.118,0,0,1,16.332,90.407V82.574a8.155,8.155,0,0,1,8.145-8.145H75.438A1.062,1.062,0,0,1,76.5,75.491V90.407a30.117,30.117,0,0,1-30.084,30.084ZM24.477,76.552a6.029,6.029,0,0,0-6.022,6.022v7.834a27.961,27.961,0,1,0,55.921,0V76.552Z" transform="translate(-16.332 -74.429)" fill="#19769f"/>
            </g>
          </g>
        </g>
      </g>
      <g id="Group_3179" data-name="Group 3179" transform="translate(3.104 10.432)">
        <g id="Group_3178" data-name="Group 3178">
          <g id="Group_3177" data-name="Group 3177">
            <g id="Group_3176" data-name="Group 3176">
              <path id="Path_9228" data-name="Path 9228" d="M69.072,87.722V85.407a24.719,24.719,0,0,0-49.436,0v2.315a7.475,7.475,0,1,0,.653,14.894,24.767,24.767,0,0,0,48.131,0,7.475,7.475,0,1,0,.653-14.894Z" transform="translate(-11.939 -60.912)" fill="#f9cfcf"/>
            </g>
          </g>
        </g>
      </g>
      <g id="Group_3183" data-name="Group 3183" transform="translate(29.098 55.265)">
        <g id="Group_3182" data-name="Group 3182">
          <g id="Group_3181" data-name="Group 3181">
            <g id="Group_3180" data-name="Group 3180">
              <path id="Path_9229" data-name="Path 9229" d="M67.332,149.54a9.21,9.21,0,0,1-2.71-.365,8.109,8.109,0,0,1-3.4-1.986,1.062,1.062,0,1,1,1.507-1.5,5.975,5.975,0,0,0,2.511,1.449,8.137,8.137,0,0,0,4.183,0,5.98,5.98,0,0,0,2.512-1.45,1.061,1.061,0,0,1,1.507,1.5,8.1,8.1,0,0,1-3.4,1.986A9.172,9.172,0,0,1,67.332,149.54Z" transform="translate(-60.914 -145.38)" fill="#19769f"/>
            </g>
          </g>
        </g>
      </g>
      <g id="Group_3187" data-name="Group 3187" transform="translate(45.228 40.217)">
        <g id="Group_3186" data-name="Group 3186">
          <g id="Group_3185" data-name="Group 3185">
            <g id="Group_3184" data-name="Group 3184">
              <path id="Path_9230" data-name="Path 9230" d="M94.428,126.609a3.124,3.124,0,0,1-3.124-3.124v-3.333a3.124,3.124,0,0,1,6.248,0v3.333A3.124,3.124,0,0,1,94.428,126.609Z" transform="translate(-91.304 -117.028)" fill="#19769f"/>
            </g>
          </g>
        </g>
      </g>
      <g id="Group_3191" data-name="Group 3191" transform="translate(19.556 40.217)">
        <g id="Group_3190" data-name="Group 3190">
          <g id="Group_3189" data-name="Group 3189">
            <g id="Group_3188" data-name="Group 3188">
              <path id="Path_9231" data-name="Path 9231" d="M46.061,126.609a3.124,3.124,0,0,1-3.124-3.124v-3.333a3.124,3.124,0,0,1,6.248,0v3.333A3.124,3.124,0,0,1,46.061,126.609Z" transform="translate(-42.937 -117.028)" fill="#19769f"/>
            </g>
          </g>
        </g>
      </g>
      <g id="Group_3195" data-name="Group 3195" transform="translate(2.042 9.371)">
        <g id="Group_3194" data-name="Group 3194">
          <g id="Group_3193" data-name="Group 3193">
            <g id="Group_3192" data-name="Group 3192">
              <path id="Path_9232" data-name="Path 9232" d="M43.416,121.651a25.619,25.619,0,0,1-24.88-18.87,8.651,8.651,0,0,1-5.772-2.21,8.524,8.524,0,0,1,4.873-14.806v-1.3a25.781,25.781,0,0,1,51.559,0v1.3a8.535,8.535,0,0,1,5.138,2.409,8.489,8.489,0,0,1-.265,12.4,8.653,8.653,0,0,1-5.773,2.21,25.621,25.621,0,0,1-24.881,18.87ZM19.352,100.616a1.061,1.061,0,0,1,1.032.818,23.706,23.706,0,0,0,46.064,0,1.059,1.059,0,0,1,1.145-.813,6.54,6.54,0,0,0,5.056-1.629,6.366,6.366,0,0,0,.2-9.3,6.468,6.468,0,0,0-4.692-1.846,1.045,1.045,0,0,1-.764-.3,1.061,1.061,0,0,1-.318-.758V84.469a23.658,23.658,0,0,0-47.313,0v2.315a1.062,1.062,0,0,1-.318.758,1.042,1.042,0,0,1-.764.3,6.481,6.481,0,0,0-4.692,1.846,6.366,6.366,0,0,0,.2,9.3,6.451,6.451,0,0,0,5.056,1.628A1.008,1.008,0,0,1,19.352,100.616Z" transform="translate(-9.939 -58.912)" fill="#19769f"/>
            </g>
          </g>
        </g>
      </g>
      <g id="Group_3199" data-name="Group 3199" transform="translate(10.02 1.062)">
        <g id="Group_3198" data-name="Group 3198">
          <g id="Group_3197" data-name="Group 3197">
            <g id="Group_3196" data-name="Group 3196">
              <path id="Path_9233" data-name="Path 9233" d="M76.837,76.6H39.672a14.7,14.7,0,0,1-14.7-14.7V57.959a14.7,14.7,0,0,1,14.7-14.7H62.6A16.893,16.893,0,0,1,79.491,60.15V73.944A2.654,2.654,0,0,1,76.837,76.6Z" transform="translate(-24.97 -43.257)" fill="#0087c3"/>
            </g>
          </g>
        </g>
      </g>
      <g id="Group_3203" data-name="Group 3203" transform="translate(8.959)">
        <g id="Group_3202" data-name="Group 3202">
          <g id="Group_3201" data-name="Group 3201">
            <g id="Group_3200" data-name="Group 3200">
              <path id="Path_9234" data-name="Path 9234" d="M75.9,76.721H38.734A15.782,15.782,0,0,1,22.97,60.957V57.021A15.782,15.782,0,0,1,38.734,41.257H61.66A17.974,17.974,0,0,1,79.613,59.211V73.005A3.719,3.719,0,0,1,75.9,76.721ZM38.734,43.38A13.656,13.656,0,0,0,25.093,57.021v3.936A13.656,13.656,0,0,0,38.734,74.6H75.9a1.594,1.594,0,0,0,1.592-1.592V59.211A15.849,15.849,0,0,0,61.659,43.38Z" transform="translate(-22.97 -41.257)" fill="#19769f"/>
            </g>
          </g>
        </g>
      </g>
    </g>
    <g id="Group_3224" data-name="Group 3224" transform="translate(50.604 64.709)">
      <g id="Group_3207" data-name="Group 3207" transform="translate(0 0)">
        <g id="Group_3206" data-name="Group 3206">
          <g id="Group_3205" data-name="Group 3205">
            <ellipse id="Ellipse_495" data-name="Ellipse 495" cx="22.557" cy="22.557" rx="22.557" ry="22.557" fill="#6bdddd"/>
          </g>
        </g>
      </g>
    </g>
    <g id="Group_3225" data-name="Group 3225" transform="translate(55.616 69.722)">
      <g id="Group_3211" data-name="Group 3211" transform="translate(0)">
        <g id="Group_3210" data-name="Group 3210">
          <g id="Group_3209" data-name="Group 3209">
            <ellipse id="Ellipse_496" data-name="Ellipse 496" cx="17.545" cy="17.545" rx="17.545" ry="17.545" fill="#fff"/>
          </g>
        </g>
      </g>
    </g>
    <g id="Group_3227" data-name="Group 3227" transform="translate(49.543 63.648)">
      <g id="Group_3220" data-name="Group 3220" transform="translate(0)">
        <g id="Group_3219" data-name="Group 3219">
          <g id="Group_3218" data-name="Group 3218">
            <path id="Path_9236" data-name="Path 9236" d="M123.053,208.412a23.619,23.619,0,1,1,23.619-23.619A23.645,23.645,0,0,1,123.053,208.412Zm0-45.115a21.5,21.5,0,1,0,21.5,21.5A21.52,21.52,0,0,0,123.053,163.3Z" transform="translate(-99.434 -161.174)" fill="#19769f"/>
          </g>
        </g>
      </g>
    </g>
  </g>
  <g id="Group_3217" data-name="Group 3217" transform="translate(70.975 76.47)">
    <g id="Group_3216" data-name="Group 3216" transform="translate(0)">
      <g id="Group_3215" data-name="Group 3215">
        <g id="Group_3214" data-name="Group 3214">
          <g id="Group_3213" data-name="Group 3213">
            <path id="Path_9235" data-name="Path 9235" d="M139.459,184.543a2.247,2.247,0,0,1,.007-3.16,2.713,2.713,0,0,1,3.423,0,2.065,2.065,0,0,1,.653,1.584,2.041,2.041,0,0,1-.653,1.576,2.442,2.442,0,0,1-1.719.6A2.409,2.409,0,0,1,139.459,184.543Zm.165,18.061a2.766,2.766,0,0,1-.54-1.846V190.639a2.8,2.8,0,0,1,.533-1.839,1.857,1.857,0,0,1,1.509-.638,2,2,0,0,1,1.583.638,2.7,2.7,0,0,1,.563,1.839v10.119a2.8,2.8,0,0,1-.533,1.839,1.908,1.908,0,0,1-1.554.638A1.944,1.944,0,0,1,139.624,202.6Z" transform="translate(-138.813 -180.775)" fill="#ff7474"/>
          </g>
        </g>
      </g>
    </g>
  </g>
</svg>
