<svg xmlns="http://www.w3.org/2000/svg" width="393.953" height="260.109" viewBox="0 0 393.953 260.109">
  <g id="Group_3003" data-name="Group 3003" transform="translate(1054.953 -1334)">
    <g id="Group_3000" data-name="Group 3000" transform="translate(-1082.047 1333.997)">
      <path id="Path_9069" data-name="Path 9069" d="M91.027,356.76h36.567v49.845H93.7c-.086.515-.173,1.027-.27,1.542h34.164V448.34a.514.514,0,0,1-.169-.065q-1.441-.573-2.883-1.214c-.205-.094-.407-.191-.616-.281q-1.441-.681-2.883-1.441c-.335-.177-.67-.36-1-.548A59.973,59.973,0,0,1,105.667,433.6c-.126-.119-.241-.249-.36-.36-.584-.634-1.157-1.276-1.712-1.931-.209-.241-.411-.486-.616-.721-.656-.8-1.29-1.629-1.9-2.461-.094-.126-.18-.249-.27-.36a53.228,53.228,0,0,1-6.2-11.206c-.05-.119-.1-.249-.144-.36-.5-1.261-.948-2.54-1.337-3.845-.166-.544-.328-1.081-.465-1.647-.05-.162-.09-.328-.133-.49-2.025-7.982-2.259-16.276-2.259-24.532V382.8q.043-5.056.119-10.1.029-1.3.054-2.605.076-3.311.216-6.637c.022-.613.05-1.229.083-1.838q.022-.53.054-1.059Q90.893,358.648,91.027,356.76Z" transform="translate(-63.176 -234.892)" fill="#5fe5bc" opacity="0.1"/>
      <path id="Path_9070" data-name="Path 9070" d="M158.24,157.746H138.18a152.693,152.693,0,0,1,10.67-14.68c2.984-3.661,6.126-7.228,9.39-10.666Z" transform="translate(-93.823 -91.377)" fill="#5fe5bc" opacity="0.1"/>
      <path id="Path_9071" data-name="Path 9071" d="M129.142,207v52.422H92.69c0-.151.022-.306.036-.458.032-.414.065-.825.1-1.24.036-.483.083-.966.13-1.441s.094-1.052.151-1.575.1-1.052.162-1.575.115-1.045.18-1.564.123-1.045.195-1.564c.054-.429.108-.861.169-1.294.083-.609.169-1.218.259-1.823a1.734,1.734,0,0,1,.043-.274,125.732,125.732,0,0,1,2.681-13.16,97.438,97.438,0,0,1,4.522-13.332,100.128,100.128,0,0,1,6.8-13.124Z" transform="translate(-64.724 -139.096)" fill="#5fe5bc" opacity="0.1"/>
      <path id="Path_9072" data-name="Path 9072" d="M218.09,140.428v49.845H296.2V140.428Zm0,51.388v42.808c.447.09.886.18,1.33.256.595.115,1.193.22,1.8.31l.36.05c.238.04.479.072.721.1.6.086,1.2.151,1.8.209.281.029.573.05.858.076l.7.05h0c.378.029.753.05,1.128.065.231,0,.461.018.7.025s.36,0,.548,0h2c.31,0,.62,0,.926-.029h.018a5.515,5.515,0,0,0,.645-.025,1.584,1.584,0,0,0,.184,0,4.341,4.341,0,0,0,.533-.022.75.75,0,0,1,.122,0c.4-.025.8-.058,1.211-.094s.793-.079,1.2-.123l.818-.1a71.763,71.763,0,0,0,9.891-2.1c7.29-2.032,14.414-4.875,21.7-6.954,9.412-2.685,19.819-4.007,28.913-.739v-33.76ZM296.2,84.929V18.569a100.365,100.365,0,0,0-25.375,2.973c-19.779,4.969-37.54,15.747-52.732,29.512V84.925h3.931v1.539H218.09v52.422H296.2V86.464H238.1V84.922ZM396.543,62.512A32.335,32.335,0,0,1,382.382,58.4c-8.41-4.573-15.134-11.642-22.644-17.6a103.968,103.968,0,0,0-54.8-21.779V84.929H416.427l.277-.292Zm10.158-1.8,10.771,11.823V57.6A43.119,43.119,0,0,0,406.7,60.7Zm10.771,184.543V191.816H394.5c-.058-.227-.122-.458-.195-.688.068.231.13.461.191.688H304.935v38.643c.85.631,1.69,1.3,2.522,1.967h0q1.348,1.1,2.677,2.23l.894.739c.429.36.865.721,1.3,1.063q1.3,1.049,2.62,2.076.659.519,1.326,1.02a180.926,180.926,0,0,0,22.211,14.525c1.737.969,3.492,1.9,5.257,2.814q1.762.908,3.549,1.78,2.681,1.308,5.405,2.522h0A198.4,198.4,0,0,0,405.3,276.517q6.046.89,12.147,1.405V245.247h.36ZM304.935,86.464v52.422H417.472V86.464Zm0,53.957v49.853H417.472V140.428ZM426.206,57.529V74.212L439.95,59.125Q433.118,58,426.206,57.529Zm0,82.9v49.845H535.659V140.428ZM535.273,249.207l.385-57.391H426.206V278.5a197.2,197.2,0,0,0,21.152-.256h.123q5.045-.324,10.043-.922h.076a184.669,184.669,0,0,0,51.611-13.787m47.564-114.922q-.623-1.441-1.279-2.883c-.814-1.8-1.672-3.553-2.558-5.3H544.4v49.842h21.588c-.018-14.118-3.593-28.532-9.21-41.659Zm-12.378,43.2v49.366a70.64,70.64,0,0,0,14.918-20.121,69.253,69.253,0,0,0,6.655-29.249Zm0-65.913v12.972h7.74A140.954,140.954,0,0,0,544.4,125.9ZM470.168,67.312c-.569-.22-1.142-.44-1.715-.649a155.717,155.717,0,0,0-18.485-5.556L428.931,84.19h0l-.411.443.27.292h74.871a159.954,159.954,0,0,0-33.493-17.613Zm35.691,19.152H427.741l-1.535,1.4v51.02H535.659V114.167A155.843,155.843,0,0,0,505.859,86.464Z" transform="translate(-144.938 -18.56)" fill="#5fe5bc" opacity="0.1"/>
      <path id="Path_9073" data-name="Path 9073" d="M129.142,280.39v25.977H92.69c0-.151.022-.306.036-.458.032-.414.065-.825.1-1.24.036-.483.083-.966.13-1.441s.094-1.052.151-1.575.1-1.052.162-1.575.115-1.045.18-1.564.123-1.045.195-1.564c.054-.429.108-.861.169-1.294.083-.609.169-1.218.259-1.823a1.734,1.734,0,0,1,.043-.274A125.732,125.732,0,0,1,96.8,280.4Z" transform="translate(-64.724 -186.041)" fill="#5fe5bc" opacity="0.1"/>
      <path id="Path_9074" data-name="Path 9074" d="M91.027,356.76h36.567v49.845H93.7c-.086.515-.173,1.027-.27,1.542h34.164V448.34a.514.514,0,0,1-.169-.065q-1.441-.573-2.883-1.214c-.205-.094-.407-.191-.616-.281q-1.441-.681-2.883-1.441c-.335-.177-.67-.36-1-.548A59.973,59.973,0,0,1,105.667,433.6c-.126-.119-.241-.249-.36-.36-.584-.634-1.157-1.276-1.712-1.931-.209-.241-.411-.486-.616-.721-.656-.8-1.29-1.629-1.9-2.461-.094-.126-.18-.249-.27-.36a53.228,53.228,0,0,1-6.2-11.206c-.05-.119-.1-.249-.144-.36-.5-1.261-.948-2.54-1.337-3.845-.166-.544-.328-1.081-.465-1.647-.05-.162-.09-.328-.133-.49-2.025-7.982-2.259-16.276-2.259-24.532V382.8q.043-5.056.119-10.1.029-1.3.054-2.605.076-3.311.216-6.637c.022-.613.05-1.229.083-1.838q.022-.53.054-1.059Q90.893,358.648,91.027,356.76Z" transform="translate(-63.176 -234.892)" fill="#5fe5bc" opacity="0.1"/>
      <path id="Path_9075" data-name="Path 9075" d="M229.627,182.286V227.2h-27.5V182.286h3.92V167.08h16.093v15.206Z" transform="translate(-128.982 -106.873)" fill="#5fe5bc" opacity="0.1"/>
      <rect id="Rectangle_1928" data-name="Rectangle 1928" width="27.494" height="49.845" transform="translate(73.148 121.864)" fill="#5fe5bc" opacity="0.1"/>
      <path id="Path_9076" data-name="Path 9076" d="M218.09,499.37h27.494v41.439a71.206,71.206,0,0,1-9.891,2.1c-.274.04-.544.072-.818.1-.4.047-.8.09-1.2.126l-1.207.1h-.122l-.533.029h-.184c-.216,0-.429.025-.645.029h-.018c-.31,0-.616.022-.926.029h-2.551a5.663,5.663,0,0,1-.7-.029q-.555-.022-1.124-.065h0l-.7-.05c-.288-.022-.577-.05-.861-.079q-.908-.079-1.8-.205l-.721-.1-.36-.05c-.6-.09-1.2-.191-1.8-.306-.447-.079-.886-.169-1.33-.263Z" transform="translate(-144.938 -326.114)" fill="#5fe5bc" opacity="0.1"/>
      <rect id="Rectangle_1929" data-name="Rectangle 1929" width="22.672" height="50.213" transform="translate(249.858 70.109)" fill="#5fe5bc" opacity="0.1"/>
      <path id="Path_9077" data-name="Path 9077" d="M555.687,338.19v49.849H443.15v-21.5h59.942v12.684h29.919V338.19Z" transform="translate(-283.153 -216.326)" fill="#5fe5bc" opacity="0.1"/>
      <path id="Path_9078" data-name="Path 9078" d="M571.994,551.6a2.039,2.039,0,0,1-.36-.022v32.7q-6.093-.5-12.143-1.4a198.663,198.663,0,0,1-52.631-15.314q-7.254-3.272-14.212-7.131A181.566,181.566,0,0,1,470.44,545.9q-2.659-2.032-5.239-4.155c-1.193-.987-2.375-2-3.578-2.973-.829-.674-1.668-1.34-2.522-1.975V498.148h89.565c-.065-.231-.123-.458-.187-.688.068.231.133.458.191.688h22.968v53.424C571.756,551.575,571.875,551.586,571.994,551.6Z" transform="translate(-299.103 -324.892)" fill="#5fe5bc" opacity="0.1"/>
      <path id="Path_9079" data-name="Path 9079" d="M909.284,170.315H894.51v-4.591h6.62V152.05q.861.317,1.715.649v13.026h6.436Z" transform="translate(-577.619 -103.947)" fill="#5fe5bc" opacity="0.1"/>
      <path id="Path_9080" data-name="Path 9080" d="M881.645,259.422H809.109a.046.046,0,0,0,.021,0H795.65V209.209h3.812v37.115h17.419V224.343h14.4V207H846.05v17.354h14.388v21.981h21.21Z" transform="translate(-514.382 -139.096)" fill="#5fe5bc" opacity="0.1"/>
      <path id="Path_9081" data-name="Path 9081" d="M795.65,356.76v49.845h86V356.76ZM904.98,465.276l.123-39.457H881.648V408.162h-86v86.672a197.221,197.221,0,0,0,21.152-.256h.122q5.045-.324,10.043-.922h.076a184.666,184.666,0,0,0,51.611-13.786" transform="translate(-514.382 -234.892)" fill="#5fe5bc" opacity="0.1"/>
      <path id="Path_9082" data-name="Path 9082" d="M1125.163,499.37h20.06a69.292,69.292,0,0,1-6.655,29.245,70.607,70.607,0,0,1-14.918,20.125V517.03h1.513Z" transform="translate(-724.191 -326.114)" fill="#5fe5bc" opacity="0.1"/>
      <path id="Path_9083" data-name="Path 9083" d="M1147.924,421.139H1127.85V379.48h10.864C1144.332,392.607,1147.906,407.021,1147.924,421.139Z" transform="translate(-726.878 -249.425)" fill="#5fe5bc" opacity="0.1"/>
      <rect id="Rectangle_1930" data-name="Rectangle 1930" width="12.147" height="15.743" transform="translate(260.387 84.069)" fill="#5fe5bc" opacity="0.1"/>
      <rect id="Rectangle_1931" data-name="Rectangle 1931" width="12.147" height="3.625" transform="translate(260.387 116.701)" fill="#5fe5bc" opacity="0.1"/>
      <rect id="Rectangle_1932" data-name="Rectangle 1932" width="12.147" height="10.576" transform="translate(260.387 121.864)" fill="#5fe5bc" opacity="0.1"/>
      <rect id="Rectangle_1933" data-name="Rectangle 1933" width="12.147" height="15.743" transform="translate(260.387 149.333)" fill="#5fe5bc" opacity="0.1"/>
      <rect id="Rectangle_1934" data-name="Rectangle 1934" width="12.147" height="15.743" transform="translate(260.387 181.965)" fill="#5fe5bc" opacity="0.1"/>
      <path id="Path_9084" data-name="Path 9084" d="M749.847,626.182a1.751,1.751,0,0,1,.36.025,2.038,2.038,0,0,1-.36-.022v3.657H737.7V614.1h12.147Z" transform="translate(-477.313 -399.503)" fill="#5fe5bc" opacity="0.1"/>
      <path id="Path_9085" data-name="Path 9085" d="M749.847,704.65v12.158q-6.1-.5-12.147-1.4V704.65Z" transform="translate(-477.313 -457.424)" fill="#5fe5bc" opacity="0.1"/>
      <rect id="Rectangle_1935" data-name="Rectangle 1935" width="52.058" height="1.157" transform="translate(159.997 170.557)" fill="#5fe5bc" opacity="0.1"/>
      <rect id="Rectangle_1936" data-name="Rectangle 1936" width="52.058" height="4.432" transform="translate(159.997 173.252)" fill="#5fe5bc" opacity="0.1"/>
      <rect id="Rectangle_1937" data-name="Rectangle 1937" width="52.058" height="7.127" transform="translate(159.997 192.213)" fill="#5fe5bc" opacity="0.1"/>
      <path id="Path_9086" data-name="Path 9086" d="M515.636,612.08v7.128H474.917q-2.659-2.025-5.239-4.158c-1.2-.984-2.378-1.993-3.578-2.969Z" transform="translate(-303.581 -398.211)" fill="#5fe5bc" opacity="0.1"/>
      <path id="Path_9087" data-name="Path 9087" d="M570.711,672.17v7.145h-4.3q-7.254-3.272-14.212-7.131Z" transform="translate(-358.656 -436.648)" fill="#5fe5bc" opacity="0.1"/>
      <rect id="Rectangle_1938" data-name="Rectangle 1938" width="10.248" height="10.248" transform="translate(302.42 126.697)" fill="#5fe5bc" opacity="0.1"/>
      <rect id="Rectangle_1939" data-name="Rectangle 1939" width="10.248" height="10.248" transform="translate(80.532 78.948)" fill="#5fe5bc" opacity="0.1"/>
      <rect id="Rectangle_1940" data-name="Rectangle 1940" width="10.248" height="10.248" transform="translate(80.532 102.752)" fill="#5fe5bc" opacity="0.1"/>
      <rect id="Rectangle_1941" data-name="Rectangle 1941" width="10.248" height="10.248" transform="translate(80.532 126.556)" fill="#5fe5bc" opacity="0.1"/>
      <rect id="Rectangle_1942" data-name="Rectangle 1942" width="10.248" height="10.248" transform="translate(80.532 150.356)" fill="#5fe5bc" opacity="0.1"/>
      <rect id="Rectangle_1943" data-name="Rectangle 1943" width="10.248" height="10.248" transform="translate(80.532 174.16)" fill="#5fe5bc" opacity="0.1"/>
      <rect id="Rectangle_1944" data-name="Rectangle 1944" width="10.248" height="10.248" transform="translate(80.532 197.964)" fill="#5fe5bc" opacity="0.1"/>
      <rect id="Rectangle_1945" data-name="Rectangle 1945" width="10.248" height="10.248" transform="translate(341.542 126.697)" fill="#5fe5bc" opacity="0.1"/>
      <rect id="Rectangle_1946" data-name="Rectangle 1946" width="10.248" height="10.248" transform="translate(302.42 151.974)" fill="#5fe5bc" opacity="0.1"/>
      <rect id="Rectangle_1947" data-name="Rectangle 1947" width="10.248" height="10.248" transform="translate(341.542 151.974)" fill="#5fe5bc" opacity="0.1"/>
      <rect id="Rectangle_1948" data-name="Rectangle 1948" width="10.248" height="10.248" transform="translate(302.42 177.248)" fill="#5fe5bc" opacity="0.1"/>
      <rect id="Rectangle_1949" data-name="Rectangle 1949" width="10.248" height="10.248" transform="translate(341.542 177.248)" fill="#5fe5bc" opacity="0.1"/>
      <rect id="Rectangle_1950" data-name="Rectangle 1950" width="10.248" height="10.248" transform="translate(302.42 202.526)" fill="#5fe5bc" opacity="0.1"/>
      <rect id="Rectangle_1951" data-name="Rectangle 1951" width="10.248" height="10.248" transform="translate(341.542 202.526)" fill="#5fe5bc" opacity="0.1"/>
      <rect id="Rectangle_1952" data-name="Rectangle 1952" width="10.248" height="10.248" transform="translate(302.42 227.804)" fill="#5fe5bc" opacity="0.1"/>
      <rect id="Rectangle_1953" data-name="Rectangle 1953" width="10.248" height="10.248" transform="translate(341.542 227.804)" fill="#5fe5bc" opacity="0.1"/>
      <path id="Path_9088" data-name="Path 9088" d="M838.4,708.939V702.33h10.244V708Z" transform="translate(-535.98 -449.252)" fill="#5fe5bc" opacity="0.1"/>
      <path id="Path_9089" data-name="Path 9089" d="M96.53,316.91v5.863H131.6V316.91Zm3.492,5.5H97.139v-5.124h2.883Zm3.492,0h-2.883v-5.124h2.883Zm3.484,0h-2.883v-5.124H107Zm3.492,0h-2.883v-5.124h2.883Zm3.488,0h-2.883v-5.124h2.883Zm3.492,0h-2.883v-5.124h2.883Zm3.492,0h-2.883v-5.124h2.883Zm3.488,0h-2.883v-5.124h2.883Zm3.488,0h-2.883v-5.124h2.883Zm3.492,0h-2.883v-5.124h2.883Z" transform="translate(-67.181 -209.401)" fill="#5fe5bc" opacity="0.1"/>
      <path id="Path_9090" data-name="Path 9090" d="M96.53,364.27v5.863H131.6V364.27Zm3.492,5.5H97.139v-5.124h2.883Zm3.492,0h-2.883v-5.124h2.883Zm3.484,0h-2.883v-5.124H107Zm3.492,0h-2.883v-5.124h2.883Zm3.488,0h-2.883v-5.124h2.883Zm3.492,0h-2.883v-5.124h2.883Zm3.492,0h-2.883v-5.124h2.883Zm3.488,0h-2.883v-5.124h2.883Zm3.488,0h-2.883v-5.124h2.883Zm3.492,0h-2.883v-5.124h2.883Z" transform="translate(-67.181 -239.696)" fill="#5fe5bc" opacity="0.1"/>
      <path id="Path_9091" data-name="Path 9091" d="M96.53,411.64V417.5H131.6V411.64Zm3.492,5.488H97.139V412h2.883Zm3.492,0h-2.883V412h2.883Zm3.484,0h-2.883V412H107Zm3.492,0h-2.883V412h2.883Zm3.488,0h-2.883V412h2.883Zm3.492,0h-2.883V412h2.883Zm3.492,0h-2.883V412h2.883Zm3.488,0h-2.883V412h2.883Zm3.488,0h-2.883V412h2.883Zm3.492,0h-2.883V412h2.883Z" transform="translate(-67.181 -269.997)" fill="#5fe5bc" opacity="0.1"/>
      <path id="Path_9092" data-name="Path 9092" d="M96.53,459v5.859H131.6V459Zm3.492,5.492H97.139V459.36h2.883Zm3.492,0h-2.883V459.36h2.883Zm3.484,0h-2.883V459.36H107Zm3.492,0h-2.883V459.36h2.883Zm3.488,0h-2.883V459.36h2.883Zm3.492,0h-2.883V459.36h2.883Zm3.492,0h-2.883V459.36h2.883Zm3.488,0h-2.883V459.36h2.883Zm3.488,0h-2.883V459.36h2.883Zm3.492,0h-2.883V459.36h2.883Z" transform="translate(-67.181 -300.291)" fill="#5fe5bc" opacity="0.1"/>
      <path id="Path_9093" data-name="Path 9093" d="M97,506.34c.137.555.3,1.1.465,1.647v-1.276h2.883v5.12H98.8c.043.123.09.249.141.36h32.971V506.34Zm6.846,5.492h-2.883v-5.12h2.883Zm3.484,0h-2.883v-5.12h2.883Zm3.492,0H107.94v-5.12h2.883Zm3.488,0h-2.883v-5.12h2.883Zm3.492,0H114.92v-5.12H117.8Zm3.492,0h-2.883v-5.12h2.883Zm3.488,0H121.9v-5.12h2.883Zm3.488,0h-2.883v-5.12h2.883Zm3.492,0h-2.883v-5.12h2.883Z" transform="translate(-67.481 -330.573)" fill="#5fe5bc" opacity="0.1"/>
      <path id="Path_9094" data-name="Path 9094" d="M119.54,553.7c.094.115.18.245.27.36h1.906v2.461l.616.721v-3.2h2.883v5.167H124.03c.115.119.227.245.36.36h21.919V553.7Zm9.174,5.513h-2.883v-5.146h2.883Zm3.492,0h-2.883v-5.146h2.883Zm3.492,0h-2.883v-5.146H135.7Zm3.488,0H136.3v-5.146h2.883Zm3.488,0h-2.883v-5.146h2.883Zm3.492,0h-2.883v-5.146h2.883Z" transform="translate(-81.899 -360.867)" fill="#5fe5bc" opacity="0.1"/>
      <path id="Path_9095" data-name="Path 9095" d="M172.93,601.06c.331.187.667.36,1,.544v-.18h2.883v1.625c.209.09.407.187.613.281v-1.906h2.883v3.121a1.19,1.19,0,0,0,.169.061V601.06Z" transform="translate(-116.051 -391.162)" fill="#5fe5bc" opacity="0.1"/>
      <path id="Path_9096" data-name="Path 9096" d="M446.644,256.684Zm-22.2,106.354Zm-23.159-54.112c.068.231.13.461.191.688h0C401.425,309.387,401.36,309.156,401.288,308.926Zm45.356-52.242ZM229,202.727v1.535h16.1V202.72Zm195.451,160.31Zm-23.162-54.112c.068.231.13.461.191.688h0C401.425,309.387,401.36,309.156,401.288,308.926Zm45.356-52.242Zm-22.2,106.354Zm-23.159-54.112c.068.231.13.461.191.688h0C401.425,309.387,401.36,309.156,401.288,308.926Z" transform="translate(-151.917 -136.358)" fill="#5fe5bc" opacity="0.1"/>
    </g>
  </g>
</svg>
