<svg xmlns="http://www.w3.org/2000/svg" width="138.11" height="138.096" viewBox="0 0 138.11 138.096">
  <g id="Group_3316" data-name="Group 3316" transform="translate(-3811.086 1780.421)">
    <path id="Path_9310" data-name="Path 9310" d="M173.243,254.355a.171.171,0,0,1,.028-.031L140.755,286.8A32.389,32.389,0,0,0,163.621,342.1h.021a32.179,32.179,0,0,0,22.888-9.471l32.514-32.472s0,0,0,0Zm0,0" transform="translate(3683.833 -1988.426)" fill="none" stroke="#63dcfd" stroke-linecap="round" stroke-linejoin="round" stroke-width="8"/>
    <path id="Path_9311" data-name="Path 9311" d="M176.428,342.169l33.116-32.54a32.388,32.388,0,0,0-22.866-55.3h-.021a32.18,32.18,0,0,0-22.888,9.471l-32.514,32.471s0,.855,0,.855S176.438,342.16,176.428,342.169Z" transform="translate(3726.152 -2030.745)" fill="none" stroke="#fd7474" stroke-linecap="round" stroke-linejoin="round" stroke-width="8"/>
  </g>
</svg>
