<svg xmlns="http://www.w3.org/2000/svg" width="13.178" height="13.178" viewBox="0 0 13.178 13.178">
  <g id="Group_3237" data-name="Group 3237" transform="translate(-24 -299.413)">
    <g id="question-list" transform="translate(24 -37.539)">
      <path id="Path_8223" data-name="Path 8223" d="M11,336.952H2.179A2.182,2.182,0,0,0,0,339.131v8.819a2.182,2.182,0,0,0,2.179,2.18H11a2.182,2.182,0,0,0,2.179-2.18v-8.819A2.182,2.182,0,0,0,11,336.952ZM1.42,339.131a.76.76,0,0,1,.759-.76H11a.761.761,0,0,1,.76.76v8.819a.761.761,0,0,1-.76.76H2.179a.761.761,0,0,1-.759-.76Z" transform="translate(0 0)" fill="#5fe5bc"/>
      <path id="Path_8221" data-name="Path 8221" d="M27.9,371.316a.615.615,0,0,0,.87,0l5.253-5.244a.616.616,0,1,0-.87-.871L28.464,370l-1.642-1.879a.616.616,0,1,0-.87.871C27.578,370.946,27.783,371.2,27.9,371.316Z" transform="translate(-23.521 -24.717)" fill="#5fe5bc"/>
    </g>
  </g>
</svg>
